<?xml version="1.0" encoding="utf-8"?>
<!-- Generator: Adobe Illustrator 23.0.1, SVG Export Plug-In . SVG Version: 6.00 Build 0)  -->
<svg version="1.1" xmlns="http://www.w3.org/2000/svg" xmlns:xlink="http://www.w3.org/1999/xlink" x="0px" y="0px"
	 viewBox="0 0 76 76" enable-background="new 0 0 76 76" xml:space="preserve">
<g id="Layer_1" display="none">
	
		<image display="inline" overflow="visible" width="71" height="71" xlink:href="80CEAE67.jpg"  transform="matrix(0.9999 0 0 0.9999 3 3)">
	</image>
</g>
<g id="Layer_2">
	<circle fill="none" stroke="#2662B0" stroke-width="2" stroke-miterlimit="10" cx="38" cy="38" r="35"/>
</g>
<g id="Layer_3">
	<g>
		<path fill="#333333" d="M19.835,56c1.2,1.3,2.9,2,4.7,2c1.8,0,3.4-0.7,4.7-2l13.2-13.1c0.9,0.2,1.9,0.3,2.8,0.3
			c0.7,0,1.4-0.1,2.1-0.2c5.8-0.9,10.4-6.1,10.5-12.1c0.1-1.9-0.3-3.8-1.1-5.5c-0.2-0.3-0.4-0.5-0.8-0.6c-0.3-0.1-0.6,0-0.9,0.2
			l-7,7.1c-1.1,1.1-3.1,1.1-4.3,0c-1.2-1.2-1.2-3.1,0-4.3l7-7.1c0.3-0.2,0.4-0.5,0.3-0.8c-0.1-0.4-0.3-0.6-0.5-0.8
			c-1.9-0.8-3.9-1.2-6-1.1c-6.2,0.4-11.4,5.6-11.8,11.8c-0.1,1.4,0,2.8,0.4,4.2c1.1,3.7,3.7,6.7,7.2,8.2l-12.5,12.4
			c-0.9,0.9-2.1,1.4-3.3,1.4s-2.4-0.5-3.3-1.4c-1.8-1.8-1.8-4.8,0-6.6l10-10c0.4-0.4,0.4-1,0-1.4c-0.4-0.4-1-0.4-1.4,0l-10,10
			C17.235,49.2,17.235,53.4,19.835,56z M42.435,40.7c-3.5-1-6.3-3.8-7.3-7.3c-0.4-1.1-0.5-2.3-0.4-3.5c0.3-5.3,4.7-9.6,9.9-9.9
			c1.2,0,2.5,0.1,3.6,0.4l-6,5.9c-2,2-2,5.2,0,7.2c1,1,2.2,1.5,3.6,1.5c1.4,0,2.6-0.5,3.6-1.5l6-5.9c0.3,1.1,0.4,2.2,0.4,3.3
			c-0.1,5-3.9,9.3-8.8,10.1c-1.5,0.3-3.1,0.2-4.5-0.2C42.435,40.8,42.435,40.8,42.435,40.7z"/>
	</g>
	<g>
		<path fill="#333333" d="M23.135,49.7c0-1.7,1.3-3,3-3c1.7,0,3,1.3,3,3s-1.3,3-3,3C24.435,52.7,23.135,51.3,23.135,49.7z
			 M25.135,49.7c0,0.6,0.4,1,1,1s1-0.4,1-1c0-0.6-0.4-1-1-1S25.135,49.1,25.135,49.7z"/>
	</g>
</g>
<g id="Layer_4" display="none">
	<g display="inline">
		<path fill="#333333" d="M52.7,54.5H23.4c-2.9,0-5.3-2.4-5.3-5.3V27.8c0-2.9,2.4-5.3,5.3-5.3h29.3c2.9,0,5.3,2.4,5.3,5.3v21.3
			C58,52.1,55.6,54.5,52.7,54.5z M23.4,24.5c-1.9,0-3.4,1.5-3.4,3.3v21.3c0,1.8,1.5,3.3,3.3,3.3h29.3c1.8,0,3.3-1.5,3.3-3.3V27.8
			c0-1.8-1.5-3.3-3.3-3.3H23.4z"/>
	</g>
	<g display="inline">
		<path fill="#333333" d="M38,41.9c-1.7,0-3.3-0.8-4.5-2.1L24,28.4c-0.4-0.4-0.3-1,0.1-1.4s1.1-0.3,1.4,0.1l9.6,11.5
			c0.7,0.9,1.8,1.4,2.9,1.4s2.2-0.5,2.9-1.4l9.5-11.4c0.4-0.4,1-0.5,1.4-0.1s0.5,1,0.1,1.4l-9.5,11.4C41.4,41.2,39.8,41.9,38,41.9z"
			/>
	</g>
	<g display="inline">
		<path fill="#333333" d="M53.5,49.8c-0.3,0-0.6-0.1-0.8-0.4l-6.9-8.2c-0.4-0.4-0.3-1.1,0.1-1.4c0.4-0.4,1.1-0.3,1.4,0.1l6.9,8.2
			c0.4,0.4,0.3,1.1-0.1,1.4C54,49.7,53.7,49.8,53.5,49.8z"/>
	</g>
	<g display="inline">
		<path fill="#333333" d="M22.5,49.7c-0.2,0-0.5-0.1-0.6-0.2c-0.4-0.4-0.5-1-0.1-1.4l6.8-8.1c0.4-0.4,1-0.5,1.4-0.1
			c0.4,0.4,0.5,1,0.1,1.4l-6.8,8.1C23.1,49.6,22.8,49.7,22.5,49.7z"/>
	</g>
</g>
<g id="Layer_5" display="none">
	<g display="inline">
		<path fill="#333333" d="M56.9,28.9c-0.8-0.9-1.9-1.5-3.1-1.5H38.4c-0.5,0-1,0.4-1,1s0.5,1,1,1h15.4c0.6,0,1.2,0.3,1.6,0.7
			c0.4,0.5,0.6,1.1,0.4,1.7l-0.9,5h-11c-0.5,0-1,0.4-1,1c0,0.6,0.5,1,1,1h10.7l-0.9,4.8c-0.1,0.7-0.8,1.2-1.5,1.2H33
			c-0.7,0-1.3-0.5-1.5-1.2l-3.9-21.7c-0.1-0.5-0.5-0.8-1-0.8h-7.7c-0.5,0-1,0.4-1,1c0,0.6,0.5,1,1,1h6.9l3.8,21
			c0.2,1.4,1.2,2.4,2.5,2.8c-0.5,0.7-0.9,1.6-0.9,2.6c0,2.5,2,4.5,4.5,4.5s4.5-2,4.5-4.5c0-0.9-0.3-1.8-0.8-2.5h6.1
			c-0.5,0.7-0.8,1.6-0.8,2.5c0,2.5,2,4.5,4.5,4.5s4.5-2,4.5-4.5c0-1-0.3-1.9-0.8-2.6c1.3-0.3,2.4-1.4,2.7-2.8l2.2-11.8
			C58,31.1,57.7,29.9,56.9,28.9z M38.2,49.4c0,1.4-1.1,2.5-2.5,2.5s-2.5-1.1-2.5-2.5s1.1-2.5,2.5-2.5S38.2,48,38.2,49.4z M49.3,51.9
			c-1.4,0-2.5-1.1-2.5-2.5s1.1-2.5,2.5-2.5c1.4,0,2.5,1.1,2.5,2.5C51.8,50.8,50.7,51.9,49.3,51.9z"/>
	</g>
</g>
</svg>
